Coordinates
version=1
nRows=4
nColumns=63
inDegrees=yes

Units are S.I. units (second, meters, Newtons, ...)
If the header above contains a line with 'inDegrees', this indicates whether rotational values are in degrees (yes) or radians (no).

endheader
time	pelvis_tilt	pelvis_list	pelvis_rotation	pelvis_tx	pelvis_ty	pelvis_tz	hip_flexion_r	hip_adduction_r	hip_rotation_r	knee_angle_r	knee_angle_r_beta	ankle_angle_r	subtalar_angle_r	mtp_angle_r	hip_flexion_l	hip_adduction_l	hip_rotation_l	knee_angle_l	knee_angle_l_beta	ankle_angle_l	subtalar_angle_l	mtp_angle_l	L5_S1_Flex_Ext	L5_S1_Lat_Bending	L5_S1_axial_rotation	L4_L5_Flex_Ext	L4_L5_Lat_Bending	L4_L5_axial_rotation	L3_L4_Flex_Ext	L3_L4_Lat_Bending	L3_L4_axial_rotation	L2_L3_Flex_Ext	L2_L3_Lat_Bending	L2_L3_axial_rotation	L1_L2_Flex_Ext	L1_L2_Lat_Bending	L1_L2_axial_rotation	L1_T12_Flex_Ext	L1_T12_Lat_Bending	L1_T12_axial_rotation	Abs_r3	Abs_r2	Abs_r1	Abs_t1	Abs_t2	neck_flexion	neck_bending	neck_rotation	arm_flex_r	arm_add_r	arm_rot_r	elbow_flex_r	pro_sup_r	wrist_flex_r	wrist_dev_r	arm_flex_l	arm_add_l	arm_rot_l	elbow_flex_l	pro_sup_l	wrist_flex_l	wrist_dev_l
     10.91700000	    -43.16835822	     -3.53144918	      5.28620790	     -0.23690337	      1.04309678	     -0.01748097	     76.95711040	    -10.33070379	     -8.69361990	     49.21015255	      0.85887919	     -3.71057554	      3.04089312	      0.00000000	    114.66621740	     -3.08389654	      4.98586901	    116.70827650	      2.03694369	     29.15403495	     16.50046387	      0.00000000	     -0.04593013	      0.31283901	     -1.25126171	     -0.08529684	      0.41607588	     -1.32946556	     -0.07545861	      0.76063676	     -1.32946556	     -0.05249355	      0.76063676	     -1.09485399	     -0.04265072	      0.63794130	     -1.01665014	     -0.02624448	      0.48458762	     -0.93844628	     -0.32807433	      3.53889742	     -6.95914224	      0.00000000	      0.00000000	      0.00000000	      0.00000000	      0.00000000	     75.17111591	    -10.98373672	     25.83684365	     28.83972359	     37.68934624	      0.00000000	      5.00000014	     77.15763873	     -6.72195828	     27.43614133	     27.84323998	     47.10689098	      0.00000000	      5.00000014
     10.92500000	    -43.15466296	     -3.52824469	      5.18562730	     -0.23663394	      1.04346900	     -0.01795028	     76.58280828	    -10.07569642	     -8.22512192	     50.48196239	      0.88107646	     -3.75929473	      2.51642988	      0.00000000	    115.62457921	     -3.11385958	      4.58786156	    115.70551266	      2.01944216	     29.36293365	     16.26152117	      0.00000000	     -0.04516677	      0.31845513	     -1.25189246	     -0.08387921	      0.42354532	     -1.33013574	     -0.07420449	      0.77429180	     -1.33013574	     -0.05162110	      0.77429180	     -1.09540591	     -0.04194186	      0.64939370	     -1.01716263	     -0.02580829	      0.49328699	     -0.93891935	     -0.32262172	      3.60242810	     -6.96265032	      0.00000000	      0.00000000	      0.00000000	      0.00000000	      0.00000000	     75.16992710	    -10.89880769	     25.89787419	     28.69086632	     37.70604348	      0.00000000	      5.00000014	     77.11171299	     -6.73247202	     27.30320226	     27.71693952	     47.07617436	      0.00000000	      5.00000014
     10.93300000	    -43.20334926	     -3.13632889	      5.17626848	     -0.23670892	      1.04409374	     -0.01819548	     76.60624001	     -9.91519889	     -7.17126372	     52.18252978	      0.91075696	     -4.24644702	      0.75667484	      0.00000000	    116.25902022	     -3.17331991	      3.78127998	    114.18976835	      1.99298743	     29.52361456	     16.07549093	      0.00000000	     -0.04531781	      0.27056874	     -1.27389557	     -0.08415970	      0.35985643	     -1.35351404	     -0.07445263	      0.65786084	     -1.35351404	     -0.05179372	      0.65786084	     -1.11465862	     -0.04208212	      0.55174378	     -1.03504015	     -0.02589460	      0.41911098	     -0.95542168	     -0.32370058	      3.06072773	     -7.08502500	      0.00000000	      0.00000000	      0.00000000	      0.00000000	      0.00000000	     75.17015067	    -10.74290659	     26.06474107	     28.46476956	     37.73312750	      0.00000000	      5.00000014	     77.17311382	     -6.72810814	     26.89978272	     27.46299365	     46.99038564	      0.00000000	      5.00000014
     10.94200000	    -43.24139205	     -3.14812012	      4.90024920	     -0.23684063	      1.04464576	     -0.01840715	     76.72989971	     -9.51897330	     -6.60343504	     54.20192193	      0.94600200	     -4.36029074	     -0.00854791	      0.00000000	    116.79424498	     -3.22719890	      3.56222926	    112.45711138	      1.96274686	     29.48472976	     15.76741839	      0.00000000	     -0.04639452	      0.28049230	     -1.23250225	     -0.08615927	      0.37305476	     -1.30953364	     -0.07622156	      0.68198899	     -1.30953364	     -0.05302430	      0.68198899	     -1.07843947	     -0.04308195	      0.57197990	     -1.00140808	     -0.02650983	      0.43448258	     -0.92437669	     -0.33139143	      3.17298503	     -6.85480778	      0.00000000	      0.00000000	      0.00000000	      0.00000000	      0.00000000	     75.18913862	    -10.76625023	     26.07539194	     28.51270712	     37.74184206	      0.00000000	      5.00000014	     77.16213958	     -6.68067272	     26.75178978	     27.42243745	     46.95564592	      0.00000000	      5.00000014
